<svg xmlns="http://www.w3.org/2000/svg" viewBox="0 0 200 240">
  <rect x="20" y="10" width="160" height="220" rx="18" fill="#fdfae7" stroke="#1e2bfa" stroke-width="6" stroke-linecap="round" stroke-linejoin="round"/>
  <rect x="40" y="30" width="120" height="180" rx="10" fill="#1e2bfa" fill-opacity="0.06" stroke="#1e2bfa" stroke-width="4" stroke-linecap="round" stroke-linejoin="round"/>
  <rect x="52" y="44" width="40" height="20" rx="5" fill="#fdfae7" stroke="#1e2bfa" stroke-width="4" stroke-linecap="round" stroke-linejoin="round"/><rect x="56" y="48" width="14" height="12" rx="3" fill="#1e2bfa"/>
  <rect x="108" y="44" width="40" height="20" rx="5" fill="#fdfae7" stroke="#1e2bfa" stroke-width="4" stroke-linecap="round" stroke-linejoin="round"/><rect x="112" y="48" width="14" height="12" rx="3" fill="#1e2bfa"/><rect x="52" y="76" width="40" height="20" rx="5" fill="#fdfae7" stroke="#1e2bfa" stroke-width="4" stroke-linecap="round" stroke-linejoin="round"/><rect x="56" y="80" width="14" height="12" rx="3" fill="#1e2bfa"/>
  <rect x="108" y="76" width="40" height="20" rx="5" fill="#fdfae7" stroke="#1e2bfa" stroke-width="4" stroke-linecap="round" stroke-linejoin="round"/><rect x="112" y="80" width="14" height="12" rx="3" fill="#1e2bfa"/><rect x="52" y="108" width="40" height="20" rx="5" fill="#fdfae7" stroke="#1e2bfa" stroke-width="4" stroke-linecap="round" stroke-linejoin="round"/><rect x="56" y="112" width="14" height="12" rx="3" fill="#1e2bfa"/>
  <rect x="108" y="108" width="40" height="20" rx="5" fill="#fdfae7" stroke="#1e2bfa" stroke-width="4" stroke-linecap="round" stroke-linejoin="round"/><rect x="112" y="112" width="14" height="12" rx="3" fill="#1e2bfa"/><rect x="52" y="140" width="40" height="20" rx="5" fill="#fdfae7" stroke="#1e2bfa" stroke-width="4" stroke-linecap="round" stroke-linejoin="round"/><rect x="56" y="144" width="14" height="12" rx="3" fill="#1e2bfa"/>
  <rect x="108" y="140" width="40" height="20" rx="5" fill="#fdfae7" stroke="#1e2bfa" stroke-width="4" stroke-linecap="round" stroke-linejoin="round"/><rect x="112" y="144" width="14" height="12" rx="3" fill="#1e2bfa"/><rect x="52" y="172" width="40" height="20" rx="5" fill="#fdfae7" stroke="#1e2bfa" stroke-width="4" stroke-linecap="round" stroke-linejoin="round"/><rect x="56" y="176" width="14" height="12" rx="3" fill="#1e2bfa"/>
  <rect x="108" y="172" width="40" height="20" rx="5" fill="#fdfae7" stroke="#1e2bfa" stroke-width="4" stroke-linecap="round" stroke-linejoin="round"/><rect x="112" y="176" width="14" height="12" rx="3" fill="#1e2bfa"/>
  <g id="switch-target"><rect x="104" y="104" width="48" height="28" rx="7" fill="none" stroke="#dc2626" stroke-width="4"/>
    <rect id="switch-toggle" x="112" y="112" width="14" height="12" rx="3" fill="#dc2626"/></g></svg>
